<?xml version="1.0" encoding="utf-8"?>
<!-- Generator: Adobe Illustrator 16.0.0, SVG Export Plug-In . SVG Version: 6.00 Build 0)  -->
<!DOCTYPE svg PUBLIC "-//W3C//DTD SVG 1.1//EN" "http://www.w3.org/Graphics/SVG/1.1/DTD/svg11.dtd">
<svg version="1.1" xmlns="http://www.w3.org/2000/svg" xmlns:xlink="http://www.w3.org/1999/xlink" x="0px" y="0px"
	 width="1135.273px" height="1117.273px" viewBox="0 0 1135.273 1117.273" enable-background="new 0 0 1135.273 1117.273"
	 xml:space="preserve">
<g id="Fond_rouge">
	<path fill-rule="evenodd" clip-rule="evenodd" fill="#FF0000" stroke="#000000" stroke-width="12" stroke-miterlimit="10" d="
		M1123,1093c0,6.627-5.373,12-12,12H25c-6.627,0-12-5.373-12-12V27c0-6.627,5.373-12,12-12h1086c6.627,0,12,5.373,12,12V1093z"/>
</g>
<g id="Fond_blanc">
	<path fill-rule="evenodd" clip-rule="evenodd" fill="#FFFFFF" stroke="#000000" stroke-width="12" stroke-miterlimit="10" d="
		M1012,979.539c0,5.226-4.235,9.461-9.461,9.461H146.461c-5.225,0-9.461-4.235-9.461-9.461V139.461c0-5.225,4.236-9.461,9.461-9.461
		h856.078c5.226,0,9.461,4.236,9.461,9.461V979.539z"/>
</g>
<g id="TT">
	<g>
		<path fill="#FF0000" stroke="#000000" stroke-width="12" stroke-miterlimit="10" d="M490.062,249.447v249.081h-79.669
			l-0.229-248.852h-79.44v-79.898h238.321v79.669H490.062z"/>
		<path fill="#FF0000" stroke="#000000" stroke-width="12" stroke-miterlimit="10" d="M727.912,249.447v249.081h-79.67
			l-0.229-248.852h-79.44v-79.898h238.321v79.669H727.912z"/>
	</g>
</g>
<g id="Banniere_rouge">
	<path fill-rule="evenodd" clip-rule="evenodd" fill="#FF0000" stroke="#000000" stroke-width="12" stroke-miterlimit="10" d="
		M1123,1101.484c0,1.941-5.373,3.516-12,3.516H25c-6.627,0-12-1.574-12-3.516V789.151c0-1.942,5.373-3.151,12-3.151h1086
		c6.627,0,12,1.209,12,3.151V1101.484z"/>
</g>
<g id="Clé">
	<g>
		<path fill-rule="evenodd" clip-rule="evenodd" fill="#FFFFFF" stroke="#000000" stroke-width="12" stroke-miterlimit="10" d="
			M451.554,937.063c31.783-109.257,91.103-143.956,203.933-119.672c2.907,0.628,7.644-1.98,10.001-4.474
			c56.479-59.7,112.712-119.622,169.121-179.383c4.405-4.67,5.156-8.733,2.545-14.709c-23.895-54.674-18.357-106.83,20.073-152.723
			c40.964-48.918,94.816-64.142,157.348-48.465c13.786,3.46,15.963,10.43,5.959,20.966c-23.342,24.576-46.455,49.36-69.704,74.016
			c-11.095,11.764-10.34,23.018,1.157,33.96c49.937,47.494,49.936,47.492,97.147-2.693c13.813-14.679,27.576-29.406,41.468-44.014
			c8.504-8.938,15.65-8.01,19.893,3.722c21.047,58.252,11.804,111.241-32.414,155.852c-41.955,42.328-93.432,54.079-150.828,37.156
			c-11.466-3.382-17.864-1.907-25.824,6.665c-54.09,58.273-108.813,115.982-163.107,174.076c-2.611,2.794-5.548,8.714-4.28,11.096
			c43.891,82.523-9.074,190.25-105.664,209.028c-15.19,0.602-30.376,1.202-45.567,1.806c-7.084-0.906-14.217-1.141-21.334-1.647
			c-2.278-0.161-4.603-0.641-6.856-1.332c-14.64-4.497-17.262-13.137-6.998-24.185c22.437-24.154,45.173-48.048,67.713-72.118
			c2.118-2.261,4.297-4.474,6.069-7.021c5.265-7.563,5.399-15.752-1.006-22.353c-12.311-12.69-25.475-24.577-39.282-35.677
			c-7.381-5.935-15.907-5.125-23.287,0.994c-3.422,2.836-6.332,6.188-9.366,9.412c-21.081,22.404-42.126,44.841-63.255,67.202
			c-1.67,1.771-3.268,3.622-5.164,5.165c-7.023,5.709-15.437,3.904-19.35-4.237c-4.344-9.036-5.089-18.906-6.562-28.596
			c-0.161-1.059,0.105-2.207-0.803-3.07C452.735,966.895,452.146,951.979,451.554,937.063z"/>
	</g>
</g>
</svg>
