<svg xmlns="http://www.w3.org/2000/svg" viewBox="0 0 1280 720" width="1280" height="720">
	<style>
		tspan { white-space:pre }
		.shp0 { fill: #0000ff } 
		.shp1 { fill: #ff0000 } 
	</style>
	<path id="Shape 2" class="shp0" d="M124 300.22C124 298.44 390 108 390 106.22C390 104.44 548 258.22 548 258.22L374 274C374 274 552 493.78 554 494C556 494.22 746 498.22 746 498.22C746 498.22 932 272 932 270.22C932 268.44 744 244 744 244.22C744 244.44 892 108.22 892 108.22L1180 302.22L1072 520.22L1000 302L930 414.22L772 662.22C772 662.22 552 662 552 660.22C552 658.44 284 346 284 346C284 346 266 548 266 546.22" />
	<path id="Shape 2 copy" class="shp1" d="M124 286.22C124 284.44 390 94 390 92.22C390 90.44 548 244.22 548 244.22L374 260C374 260 552 479.78 554 480C556 480.22 746 484.22 746 484.22C746 484.22 932 258 932 256.22C932 254.44 744 230 744 230.22C744 230.44 892 94.22 892 94.22L1180 288.22L1074 440.22L1000 288L930 400.22L760 596.22C760 596.22 562 598 562 596.22C562 594.44 284 332 284 332C284 332 258 488 258 486.22" />
</svg>