<svg width="191" height="130" xmlns="http://www.w3.org/2000/svg">
 <!-- Created with Method Draw - http://github.com/duopixel/Method-Draw/ -->

 <g>
  <title>background</title>
  <rect fill="#fff" id="canvas_background" height="132" width="193" y="-1" x="-1"/>
  <g display="none" overflow="visible" y="0" x="0" height="100%" width="100%" id="canvasGrid">
   <rect fill="url(#gridpattern)" stroke-width="0" y="0" x="0" height="100%" width="100%"/>
  </g>
 </g>
 <g>
  <title>Layer 1</title>
  <path stroke="#000" id="svg_5" d="m85.100749,70.901959c66.74496,-23.5302 51.22159,40.9309 62.34548,-21.18458c-10.3478,-2.47362 -18.88473,-2.74846 -19.14342,-3.00198c3.10434,-11.01522 4.9152,-6.89252 4.65651,-14.84174c34.92381,5.75044 54.32594,7.94924 54.06725,7.69572c-2.32826,10.69771 -3.10434,15.91981 -3.36303,15.66629c-12.93476,-1.67042 -13.96954,-2.49495 -24.83472,-4.12271c-8.01955,-0.57102 -1.55215,-4.37622 -7.50215,21.98778c-9.57174,44.22906 -55.10206,16.74435 -69.33028,11.7971c-19.91951,-7.42088 -54.20435,-52.98601 -59.59815,-57.8341c-12.41737,-5.51828 3.53604,4.44507 9.22328,-11.48407l53.47923,55.32229z" stroke-opacity="null" stroke-width="1.5" fill="#2c8989"/>
  <path stroke="#000" id="svg_8" d="m77.66917,83.84832c-72.01552,-63.35238 -47.95403,-49.33498 -42.26679,-65.26412c26.68405,24.75118 59.04375,53.01588 46.26846,53.17254" stroke-opacity="null" stroke-width="1.5" fill="#2c8989"/>
  <rect stroke="#000" transform="rotate(-32.7045783996582 28.948318481445316,22.78792190551758) " id="svg_6" height="12.597652" width="57.348477" y="16.489096" x="0.27408" stroke-width="1.5" fill="#2c8989"/>
  <rect stroke="#000" transform="rotate(24.612316131591797 83.33038330078128,65.25509643554688) " stroke-dasharray="5,2,2,2,2,2" id="svg_7" height="130.36722" width="10.401342" y="0.071489" x="78.129715" stroke-width="1.5" fill="#ffffff"/>
 </g>
</svg>