<svg version="1" xmlns="http://www.w3.org/2000/svg" width="346.667" height="346.667" viewBox="0 0 260.000000 260.000000"><path d="M61.8 2.9c-3.1 1-7.2 2.8-9.2 4-8.6 5.3-18.2 20-21.1 32.2-2.2 9.5-2.2 154.3 0 163.8 2.9 12.2 11.2 25 20.1 31.2 8.8 6 10.1 6.2 44.4 7.1 17.3.4 32.4.8 33.5 1 1.1.1 3.5-.2 5.4-.6l3.4-.8-2.1 2.7c-1.6 2-2.2 4.2-2.2 7.6 0 3.9.4 5.1 2.6 6.8 2.3 1.8 4.1 2.1 13.2 2.1 8.7 0 11.3-.4 14.9-2.1 4.9-2.4 8.9-7.1 10.8-12.6l1.3-3.8 8.4-.6c4.5-.4 10.2-1.4 12.6-2.3C215 232.3 228 211 228 189.1v-6.8l4.5-1.7c5.6-2.2 9.7-6.8 12.5-14.3 2.4-6.4 2.5-15.8.1-18.7-1.9-2.3-9.8-2.1-13.8.4-4.2 2.5-4.3 1.4-.2-1.9 5.3-4.5 4.8-14.1-.9-16.6l-2.2-1V87c0-33.4-.3-42.7-1.5-47.9-3.6-15.2-15.4-30.5-27-35.2l-6-2.4-63-.2c-58.6-.2-63.4-.1-68.7 1.6zm126.1 25c4.7 2.5 9.6 8 12.4 14 2.1 4.5 2.2 5.9 2.5 51.1.3 45.7.3 46.6-1.8 50.8-2.6 5.1-2.1 7.9.5 3.4 1.1-1.8 2.5-3.2 3.1-3.2.6 0 2.9-1.6 5-3.5s4.6-3.5 5.5-3.5c1 0 1.9-.4 2.1-.9.5-1.5 6-1.9 8.6-.8 1.2.6 2.2 1.7 2.2 2.6 0 1.7-6.1 6.1-8.5 6.1-4.1 0-4.7 10.6-.7 12.6 1.3.6 2.9 1.7 3.5 2.3 1.9 1.9 4.3 1.2 10.5-2.9 3.3-2.2 6.2-4 6.6-4 1.6 0 .3 8.7-1.9 13.5-4 8.3-8.4 10.4-18.5 9-4.3-.7-4.6-.5-8.5 3.7-2.3 2.3-4.7 5.3-5.5 6.4-2.7 3.8-27.3 31.4-28.1 31.4-.4 0-2.8 2.1-5.3 4.7-5 5.2-6 9.7-3 12.8 4 3.9-1 14.6-8.6 18.5-4.9 2.5-15.6 2.8-18.6.5-1.8-1.4-1.8-1.6 1.6-4.7 1.9-1.8 4.6-4 6-4.9 5.1-3.3 1.7-15.9-4.4-15.9-3 0-10.6 4-10.6 5.6 0 1.8-3.3 3.5-5 2.4-.9-.6-1.1-1.3-.4-2.2.5-.7 1.6-3.1 2.3-5.3.8-2.2 2.2-5.2 3.2-6.7 1.1-1.4 1.9-3.1 1.9-3.8 0-2.2 6.7-4.1 12.3-3.4l5.3.6 8.6-9.3c4.7-5.2 10-11.1 11.6-13.1 1.6-2.1 5.2-6.1 8-9 2.8-2.9 6.7-7.3 8.6-9.8 3.2-4 3.3-4.6 1.8-5.5-1.1-.6-23.1-1-62.7-1-63.8 0-63.2 0-73.3 4.2-1 .4-1.2-11.5-1-61.9.3-61.4.3-62.4 2.5-66.9C60.4 36 65.3 30.4 69.9 28c3.4-1.8 6.5-1.9 58.9-2 52.8 0 55.5.1 59.1 1.9z"/><path d="M66 38.5V43h26v64h11V43h49v64h10V43h26v-9H66v4.5z"/></svg>